<svg xmlns="http://www.w3.org/2000/svg"  viewBox="0 0 50 50" width="50px" height="50px"><path d="M 38.996094 4.0019531 C 29.785021 3.9999531 20.57298 3.9978594 11.361328 4.0058594 L 11.359375 4.0058594 C 10.763923 4.0069494 10.15629 4.0541584 9.5546875 4.1621094 L 9.5527344 4.1621094 C 6.4307268 4.7254045 3.9718988 7.3993149 4 10.748047 C 4.079926 20.337157 4.0311553 29.932591 4.0351562 39.533203 L 4.0351562 39.535156 C 4.0361262 39.859129 4.0243426 40.265613 4.1191406 40.732422 C 4.7193799 43.698218 7.3683852 45.972103 10.443359 45.980469 C 20.121702 46.008479 29.797989 46.001288 39.474609 45.986328 C 40.996213 45.984528 42.591091 45.370284 43.853516 44.236328 C 45.115941 43.102284 46.027386 41.394315 46 39.328125 C 45.938067 34.715117 45.9818 30.08923 45.984375 25.455078 L 45.986328 25.453125 L 45.986328 25.039062 C 45.986328 20.188887 45.991562 15.336308 45.976562 10.482422 C 45.975363 9.910017 45.892552 9.3341786 45.732422 8.7851562 C 44.892931 5.9112407 42.116758 4.0031017 38.996094 4.0019531 z M 38.994141 6.0019531 C 41.307476 6.0028046 43.239978 7.3856657 43.8125 9.3457031 C 43.918368 9.7086808 43.97577 10.110733 43.976562 10.486328 L 43.976562 10.488281 C 43.990522 15.003209 43.986948 19.520797 43.986328 24.039062 L 43.984375 24.039062 L 43.984375 25.039062 C 43.984375 29.79935 43.93578 34.572808 44 39.355469 C 44.01961 40.835278 43.409653 41.948706 42.517578 42.75 C 41.625503 43.551294 40.432052 43.985168 39.472656 43.986328 C 29.797276 44.001328 20.122876 44.008499 10.449219 43.980469 C 8.3788224 43.974869 6.4885552 42.355298 6.0800781 40.333984 L 6.078125 40.333984 C 6.0410651 40.151231 6.036202 39.874125 6.0351562 39.53125 L 6.0351562 39.529297 C 6.0311651 29.936606 6.0800687 20.336707 6 10.730469 C 5.9801012 8.3592004 7.6762546 6.5335606 9.9082031 6.1308594 C 10.376601 6.0468104 10.870734 6.0067648 11.363281 6.0058594 C 20.57363 5.9978594 29.783213 5.9999531 38.994141 6.0019531 z M 9 17 L 9 34 L 13 34 L 13 21.5 C 13 20.672 13.672 20 14.5 20 C 15.328 20 16 20.672 16 21.5 L 16 34 L 20 34 L 20 21.5 C 20 20.672 20.672 20 21.5 20 C 22.328 20 23 20.672 23 21.5 L 23 34 L 30.998047 34 L 34.652344 27.513672 L 37.998047 34 L 41.980469 34 L 37.582031 25.417969 L 42 17 L 38 17 L 34.582031 23.332031 L 31 17 L 26.75 17 L 31.417969 25.460938 L 27 33.25 L 27 21 C 27 19.393 25.935 17 23 17 C 21.09 17 19.864563 17.612437 19.101562 18.398438 C 18.468563 17.599437 17.468 17 16 17 C 14.713 17 13.735 17.275266 13 17.697266 L 13 17 L 9 17 z"/></svg>