<svg xmlns="http://www.w3.org/2000/svg" xmlns:xlink="http://www.w3.org/1999/xlink" viewBox="0,0,256,256" width="50px" height="50px" fill-rule="nonzero"><g fill="#339af0" fill-rule="nonzero" stroke="none" stroke-width="1" stroke-linecap="butt" stroke-linejoin="miter" stroke-miterlimit="10" stroke-dasharray="" stroke-dashoffset="0" font-family="none" font-weight="none" font-size="none" text-anchor="none" style="mix-blend-mode: normal"><g transform="scale(5.12,5.12)"><path d="M4,10v30c0,3.314 2.686,6 6,6h30c3.314,0 6,-2.686 6,-6v-30c0,-3.314 -2.686,-6 -6,-6h-30c-3.314,0 -6,2.686 -6,6zM41.98,34h-4.564l-2.944,-6l-3.056,6h-8.416v-12.5c0,-0.828 -0.672,-1.5 -1.5,-1.5c-0.828,0 -1.5,0.672 -1.5,1.5v12.5h-4v-12.5c0,-0.828 -0.672,-1.5 -1.5,-1.5c-0.828,0 -1.5,0.672 -1.5,1.5v12.5h-4v-17h4v0.698c0.735,-0.422 1.713,-0.698 3,-0.698c1.468,0 2.468,0.599 3.101,1.398c0.763,-0.786 1.989,-1.398 3.899,-1.398c2.935,0 4,2.393 4,4v12.25l4.417,-7.789l-4.417,-8.461h4.667l2.863,6.125l2.97,-6.125h4.5l-4.167,8.423z"></path></g></g></svg>