<svg xmlns="http://www.w3.org/2000/svg" width="36" height="37" fill="none"><g clip-path="url(#a)"><path fill="#072B55" d="M36 18.5c0 9.941-8.059 18-18 18s-18-8.059-18-18S8.059.5 18 .5s18 8.059 18 18"/><path fill="#fff" d="M19.477 14.43c-2.273 0-4.266.822-5.725 2.18V5.904a.35.35 0 0 0-.525-.304l-2.582 1.49a.185.185 0 0 0-.092.161v22.67c0 .193.157.35.35.35h2.499a.35.35 0 0 0 .35-.35v-1.506c1.459 1.358 3.452 2.18 5.725 2.18 4.72 0 8.244-3.54 8.244-8.082 0-4.543-3.524-8.083-8.244-8.083Zm0 13.158c-2.926 0-5.044-2.214-5.044-5.075 0-2.862 2.118-5.076 5.044-5.076 2.925 0 5.043 2.214 5.043 5.076 0 2.86-2.118 5.075-5.043 5.075Z"/><path fill="#FF7C66" d="M29.526 12.532a1.986 1.986 0 1 1-3.973 0 1.986 1.986 0 0 1 3.973 0Z"/></g><defs><clipPath id="a"><path fill="#fff" d="M0 .5h36v36H0z"/></clipPath></defs></svg>